<svg id="wave" style="transform:rotate(0deg); transition: 0.3s" viewBox="0 0 1440 490" version="1.1" xmlns="http://www.w3.org/2000/svg"><defs><linearGradient id="sw-gradient-0" x1="0" x2="0" y1="1" y2="0"><stop stop-color="rgba(232.114, 111.203, 72.37, 1)" offset="0%"></stop><stop stop-color="rgba(254.881, 227.141, 165.818, 1)" offset="100%"></stop></linearGradient></defs><path style="transform:translate(0, 0px); opacity:1" fill="url(#sw-gradient-0)" d="M0,196L40,196C80,196,160,196,240,220.5C320,245,400,294,480,302.2C560,310,640,278,720,228.7C800,180,880,114,960,130.7C1040,147,1120,245,1200,269.5C1280,294,1360,245,1440,253.2C1520,261,1600,327,1680,334.8C1760,343,1840,294,1920,302.2C2000,310,2080,376,2160,367.5C2240,359,2320,278,2400,245C2480,212,2560,229,2640,220.5C2720,212,2800,180,2880,147C2960,114,3040,82,3120,114.3C3200,147,3280,245,3360,245C3440,245,3520,147,3600,106.2C3680,65,3760,82,3840,106.2C3920,131,4000,163,4080,212.3C4160,261,4240,327,4320,359.3C4400,392,4480,392,4560,343C4640,294,4720,196,4800,196C4880,196,4960,294,5040,351.2C5120,408,5200,425,5280,424.7C5360,425,5440,408,5520,375.7C5600,343,5680,294,5720,269.5L5760,245L5760,490L5720,490C5680,490,5600,490,5520,490C5440,490,5360,490,5280,490C5200,490,5120,490,5040,490C4960,490,4880,490,4800,490C4720,490,4640,490,4560,490C4480,490,4400,490,4320,490C4240,490,4160,490,4080,490C4000,490,3920,490,3840,490C3760,490,3680,490,3600,490C3520,490,3440,490,3360,490C3280,490,3200,490,3120,490C3040,490,2960,490,2880,490C2800,490,2720,490,2640,490C2560,490,2480,490,2400,490C2320,490,2240,490,2160,490C2080,490,2000,490,1920,490C1840,490,1760,490,1680,490C1600,490,1520,490,1440,490C1360,490,1280,490,1200,490C1120,490,1040,490,960,490C880,490,800,490,720,490C640,490,560,490,480,490C400,490,320,490,240,490C160,490,80,490,40,490L0,490Z"></path><defs><linearGradient id="sw-gradient-1" x1="0" x2="0" y1="1" y2="0"><stop stop-color="rgba(204.792, 118.244, 90.447, 1)" offset="0%"></stop><stop stop-color="rgba(252.605, 212.672, 124.401, 1)" offset="100%"></stop></linearGradient></defs><path style="transform:translate(0, 50px); opacity:0.9" fill="url(#sw-gradient-1)" d="M0,0L40,57.2C80,114,160,229,240,285.8C320,343,400,343,480,334.8C560,327,640,310,720,261.3C800,212,880,131,960,81.7C1040,33,1120,16,1200,8.2C1280,0,1360,0,1440,0C1520,0,1600,0,1680,57.2C1760,114,1840,229,1920,236.8C2000,245,2080,147,2160,147C2240,147,2320,245,2400,261.3C2480,278,2560,212,2640,163.3C2720,114,2800,82,2880,65.3C2960,49,3040,49,3120,40.8C3200,33,3280,16,3360,32.7C3440,49,3520,98,3600,106.2C3680,114,3760,82,3840,98C3920,114,4000,180,4080,228.7C4160,278,4240,310,4320,302.2C4400,294,4480,245,4560,204.2C4640,163,4720,131,4800,171.5C4880,212,4960,327,5040,318.5C5120,310,5200,180,5280,179.7C5360,180,5440,310,5520,318.5C5600,327,5680,212,5720,155.2L5760,98L5760,490L5720,490C5680,490,5600,490,5520,490C5440,490,5360,490,5280,490C5200,490,5120,490,5040,490C4960,490,4880,490,4800,490C4720,490,4640,490,4560,490C4480,490,4400,490,4320,490C4240,490,4160,490,4080,490C4000,490,3920,490,3840,490C3760,490,3680,490,3600,490C3520,490,3440,490,3360,490C3280,490,3200,490,3120,490C3040,490,2960,490,2880,490C2800,490,2720,490,2640,490C2560,490,2480,490,2400,490C2320,490,2240,490,2160,490C2080,490,2000,490,1920,490C1840,490,1760,490,1680,490C1600,490,1520,490,1440,490C1360,490,1280,490,1200,490C1120,490,1040,490,960,490C880,490,800,490,720,490C640,490,560,490,480,490C400,490,320,490,240,490C160,490,80,490,40,490L0,490Z"></path><defs><linearGradient id="sw-gradient-2" x1="0" x2="0" y1="1" y2="0"><stop stop-color="rgba(218.453, 53.105, 0, 1)" offset="0%"></stop><stop stop-color="rgba(255, 179, 11, 1)" offset="100%"></stop></linearGradient></defs><path style="transform:translate(0, 100px); opacity:0.8" fill="url(#sw-gradient-2)" d="M0,49L40,114.3C80,180,160,310,240,318.5C320,327,400,212,480,155.2C560,98,640,98,720,98C800,98,880,98,960,138.8C1040,180,1120,261,1200,277.7C1280,294,1360,245,1440,228.7C1520,212,1600,229,1680,220.5C1760,212,1840,180,1920,171.5C2000,163,2080,180,2160,179.7C2240,180,2320,163,2400,130.7C2480,98,2560,49,2640,65.3C2720,82,2800,163,2880,204.2C2960,245,3040,245,3120,245C3200,245,3280,245,3360,220.5C3440,196,3520,147,3600,130.7C3680,114,3760,131,3840,171.5C3920,212,4000,278,4080,318.5C4160,359,4240,376,4320,343C4400,310,4480,229,4560,212.3C4640,196,4720,245,4800,228.7C4880,212,4960,131,5040,138.8C5120,147,5200,245,5280,277.7C5360,310,5440,278,5520,269.5C5600,261,5680,278,5720,285.8L5760,294L5760,490L5720,490C5680,490,5600,490,5520,490C5440,490,5360,490,5280,490C5200,490,5120,490,5040,490C4960,490,4880,490,4800,490C4720,490,4640,490,4560,490C4480,490,4400,490,4320,490C4240,490,4160,490,4080,490C4000,490,3920,490,3840,490C3760,490,3680,490,3600,490C3520,490,3440,490,3360,490C3280,490,3200,490,3120,490C3040,490,2960,490,2880,490C2800,490,2720,490,2640,490C2560,490,2480,490,2400,490C2320,490,2240,490,2160,490C2080,490,2000,490,1920,490C1840,490,1760,490,1680,490C1600,490,1520,490,1440,490C1360,490,1280,490,1200,490C1120,490,1040,490,960,490C880,490,800,490,720,490C640,490,560,490,480,490C400,490,320,490,240,490C160,490,80,490,40,490L0,490Z"></path><defs><linearGradient id="sw-gradient-3" x1="0" x2="0" y1="1" y2="0"><stop stop-color="rgba(243, 106, 62, 1)" offset="0%"></stop><stop stop-color="rgba(255, 179, 11, 1)" offset="100%"></stop></linearGradient></defs><path style="transform:translate(0, 150px); opacity:0.7" fill="url(#sw-gradient-3)" d="M0,0L40,16.3C80,33,160,65,240,138.8C320,212,400,327,480,375.7C560,425,640,408,720,351.2C800,294,880,196,960,171.5C1040,147,1120,196,1200,236.8C1280,278,1360,310,1440,343C1520,376,1600,408,1680,383.8C1760,359,1840,278,1920,261.3C2000,245,2080,294,2160,294C2240,294,2320,245,2400,236.8C2480,229,2560,261,2640,277.7C2720,294,2800,294,2880,261.3C2960,229,3040,163,3120,114.3C3200,65,3280,33,3360,49C3440,65,3520,131,3600,130.7C3680,131,3760,65,3840,57.2C3920,49,4000,98,4080,147C4160,196,4240,245,4320,269.5C4400,294,4480,294,4560,285.8C4640,278,4720,261,4800,220.5C4880,180,4960,114,5040,114.3C5120,114,5200,180,5280,236.8C5360,294,5440,343,5520,375.7C5600,408,5680,425,5720,432.8L5760,441L5760,490L5720,490C5680,490,5600,490,5520,490C5440,490,5360,490,5280,490C5200,490,5120,490,5040,490C4960,490,4880,490,4800,490C4720,490,4640,490,4560,490C4480,490,4400,490,4320,490C4240,490,4160,490,4080,490C4000,490,3920,490,3840,490C3760,490,3680,490,3600,490C3520,490,3440,490,3360,490C3280,490,3200,490,3120,490C3040,490,2960,490,2880,490C2800,490,2720,490,2640,490C2560,490,2480,490,2400,490C2320,490,2240,490,2160,490C2080,490,2000,490,1920,490C1840,490,1760,490,1680,490C1600,490,1520,490,1440,490C1360,490,1280,490,1200,490C1120,490,1040,490,960,490C880,490,800,490,720,490C640,490,560,490,480,490C400,490,320,490,240,490C160,490,80,490,40,490L0,490Z"></path></svg>